<?xml version="1.0" standalone="no"?><!DOCTYPE svg PUBLIC "-//W3C//DTD SVG 1.1//EN" "http://www.w3.org/Graphics/SVG/1.1/DTD/svg11.dtd"><svg t="1502969563603" class="icon" style="" viewBox="0 0 1024 1024" version="1.1" xmlns="http://www.w3.org/2000/svg" p-id="3669" xmlns:xlink="http://www.w3.org/1999/xlink" width="14" height="14"><defs><style type="text/css"></style></defs><path d="M512.705881 990.405297l-0.704522 0c-16.619732 0-32.696832-6.894326-44.108494-18.916175-9.012889-9.441599-90.88558-95.91477-172.292186-205.435315-109.919674-147.879338-165.653287-265.773605-165.653287-350.407424 0-210.665569 171.388399-382.054567 382.053967-382.054567 210.661571 0 382.047971 171.388399 382.047971 382.053568 0 51.208681-19.694647 113.913567-58.537112 186.373239-37.454606 69.86743-93.787212 151.036197-167.436078 241.249833l-0.611585 0.725508-109.622476 125.579657C546.225155 982.828434 529.7873 990.405297 512.705881 990.405297zM512.001559 91.09483c-178.957667 0-324.551154 145.593488-324.551154 324.551554 0 70.992267 53.356624 180.299357 154.300384 316.103882 80.718073 108.593174 164.275621 196.407236 167.793436 200.091738 0.667547 0.704522 1.520969 1.060281 2.457334 1.060281l0.704522 0c0.254827 0 1.075271-0.298797 1.853743-1.188194l109.274712-125.180727c71.169547-87.209672 125.334623-165.156624 160.996444-231.682319 34.315734-64.014998 51.715737-117.578882 51.715737-159.205659C836.546517 236.687718 690.956627 91.09483 512.001559 91.09483zM512.001559 594.489728c-98.614939 0-178.843344-80.228405-178.843344-178.843344 0-98.614339 80.228405-178.843344 178.843344-178.843344s178.843344 80.228805 178.843344 178.843344C690.844703 514.261323 610.616298 594.489728 512.001559 594.489728zM512.001559 294.306452c-66.907037 0-121.340531 54.432495-121.340531 121.339932 0 66.907037 54.433494 121.340331 121.340531 121.340331 66.907437 0 121.340331-54.433494 121.340331-121.340331C633.34189 348.738947 578.908996 294.306452 512.001559 294.306452z" p-id="3670" fill="#999999"></path></svg>