<?xml version="1.0" standalone="no"?><!DOCTYPE svg PUBLIC "-//W3C//DTD SVG 1.1//EN" "http://www.w3.org/Graphics/SVG/1.1/DTD/svg11.dtd"><svg t="1502940006728" class="icon" style="" viewBox="0 0 1024 1024" version="1.1" xmlns="http://www.w3.org/2000/svg" p-id="957" xmlns:xlink="http://www.w3.org/1999/xlink" width="20" height="20"><defs><style type="text/css"></style></defs><path d="M903.49568 770.49856 520.33536 448.3072l20.00896-20.04992c16.384-16.42496 25.23136-37.64224 26.58304-59.26912 0.77824-0.36864 1.57696-0.7168 2.31424-1.1264l80.71168-50.4832c10.91584-12.86144 10.11712-33.13664-1.80224-45.07648l-140.36992-140.77952C495.88224 119.6032 475.66848 118.784 462.82752 129.7408l-50.33984 80.93696c-0.4096 0.75776-0.77824 1.55648-1.1264 2.33472-21.56544 1.37216-42.72128 10.21952-59.0848 26.64448l-76.36992 76.5952c-16.384 16.42496-25.21088 37.64224-26.58304 59.24864-0.77824 0.36864-1.57696 0.7168-2.33472 1.14688L166.2976 427.1104c-10.91584 12.86144-10.11712 33.13664 1.80224 45.07648l140.3904 140.75904c11.91936 11.93984 32.13312 12.73856 44.9536 1.80224l50.33984-80.93696c0.4096-0.73728 0.77824-1.51552 1.1264-2.33472 21.56544-1.37216 42.72128-10.21952 59.0848-26.64448l22.15936-22.2208 343.59296 361.90208c11.30496 12.4928 28.75392 14.52032 38.76864 4.46464l39.46496-39.56736C917.99552 799.35488 915.968 781.84448 903.49568 770.49856z" p-id="958" fill="#1362ba"></path><path d="M587.10016 817.78688c0 22.6304-18.3296 40.96-40.96 40.96L198.5536 858.74688c-22.6304 0-40.96-18.3296-40.96-40.96l0 0c0-22.6304 18.3296-40.96 40.96-40.96l347.58656 0C568.75008 776.82688 587.10016 795.17696 587.10016 817.78688L587.10016 817.78688z" p-id="959" fill="#1362ba"></path></svg>