<?xml version="1.0" standalone="no"?><!DOCTYPE svg PUBLIC "-//W3C//DTD SVG 1.1//EN" "http://www.w3.org/Graphics/SVG/1.1/DTD/svg11.dtd"><svg t="1502939864330" class="icon" style="" viewBox="0 0 1024 1024" version="1.1" xmlns="http://www.w3.org/2000/svg" p-id="603" xmlns:xlink="http://www.w3.org/1999/xlink" width="20" height="20"><defs><style type="text/css"></style></defs><path d="M917.65 453.978c-0.521-0.649-1.077-1.26-1.662-1.828L582.66 118.822c-18.031-20.21-43.803-31.778-70.91-31.778-23.983 0-46.884 8.963-64.482 25.237-0.696 0.644-1.341 1.332-1.934 2.059L105.899 453.774c-2.117 2.116-3.686 4.628-4.663 7.33-8.188 12.817-12.486 27.537-12.486 42.939 0 44.112 35.889 80 80 80l24.067 0 0 264.438c0 1.89 0.262 3.716 0.75 5.447 5.904 46.752 45.92 83.027 94.25 83.027l96 0c11.046 0 20-8.954 20-20l0-205c0-30.327 24.673-55 55-55l127 0c29.111 0 53.012 22.73 54.882 51.378-0.215 1.175-0.327 2.385-0.327 3.622l0 205c0 11.046 8.954 20 20 20l96 0c48.329 0 88.346-36.275 94.249-83.027 0.489-1.731 0.751-3.559 0.751-5.447l0-3.877c0.114-0.865 0.175-1.75 0.175-21.647L851.547 584.044l3.703 0c44.111 0 80-35.888 80-80C935.25 485.891 929 468.111 917.65 453.978z" p-id="604" fill="#1362ba"></path></svg>