<?xml version="1.0" standalone="no"?><!DOCTYPE svg PUBLIC "-//W3C//DTD SVG 1.1//EN" "http://www.w3.org/Graphics/SVG/1.1/DTD/svg11.dtd"><svg t="1503397143311" class="icon" style="" viewBox="0 0 1024 1024" version="1.1" xmlns="http://www.w3.org/2000/svg" p-id="4686" xmlns:xlink="http://www.w3.org/1999/xlink" width="22" height="22"><defs><style type="text/css"></style></defs><path d="M563.627 601.28s-51.52 26.347-111.36 0.32c-6.613-3.2-256.96-126.187-256.96-126.187-5.013-2.347-10.773 1.387-10.773 6.933v267.307c0 2.773 1.493 5.333 3.947 6.72l261.547 131.733c0.213 0.107 0.32-0.107 0.533 0 36.48 19.307 79.253 16.213 113.173 0l225.92-117.867c2.453-1.387 3.947-3.947 3.947-6.72v-258.453c0-5.547-5.76-9.28-10.773-6.933l-219.2 103.147z" p-id="4687" fill="#5f8bc9"></path><path d="M972.8 319.36l-417.067-191.147c-31.36-14.4-67.413-14.293-98.667 0.32l-408.64 190.933c-18.88 8.853-19.093 35.84-0.32 45.013l407.147 198.72c32.32 15.787 75.52 15.893 107.84 0.427l299.84-140.8v337.28c0 13.12 9.92 23.787 22.933 23.787s22.933-10.667 22.933-23.787v-360l69.333-35.627c18.987-8.96 13.653-36.373-5.333-45.12z" p-id="4688" fill="#5f8bc9"></path></svg>