<svg id="图层_1" data-name="图层 1" xmlns="http://www.w3.org/2000/svg" viewBox="0 0 139.52 232.96"><defs><style>.cls-1{fill:#efefef;}.cls-2{fill:#fff;}.cls-3{fill:#ccc;}.cls-4{font-size:20px;fill:#999;font-family:SourceHanSansCN-Normal-GBpc-EUC-H, Source Han Sans CN;}</style></defs><title>暂无数据</title><path class="cls-1" d="M29.3,204.82a5.64,5.64,0,0,0-5.53-5.53H17.09v65.77l-42.64,42.62h-52v3.56A5.64,5.64,0,0,0-72,316.77l59.82-.56L30,273.15Zm0,0" transform="translate(109.52 -146)"/><path class="cls-2" d="M.59,182.22v99.6a5.64,5.64,0,0,1-5.53,5.53h-96.9a5.64,5.64,0,0,1-5.53-5.53V176.41a5.64,5.64,0,0,1,5.53-5.53h81.12Zm0,0" transform="translate(109.52 -146)"/><path class="cls-3" d="M-4.95,289.5h-96.9a7.65,7.65,0,0,1-7.67-7.67V176.41a7.65,7.65,0,0,1,7.67-7.67h81.12a2.19,2.19,0,0,1,2.14,2.14A2.19,2.19,0,0,1-20.73,173h-81.12a3.47,3.47,0,0,0-3.42,3.42V281.84a3.47,3.47,0,0,0,3.42,3.42h96.9a3.47,3.47,0,0,0,3.42-3.42V182.22a2.19,2.19,0,0,1,2.14-2.14,2.19,2.19,0,0,1,2.14,2.14v99.6a7.67,7.67,0,0,1-7.69,7.67Zm0,0" transform="translate(109.52 -146)"/><path class="cls-2" d="M-87.78,224v77a8.55,8.55,0,0,0,8.53,8.53H15.93A8.55,8.55,0,0,0,24.47,301V197.87a8.55,8.55,0,0,0-8.53-8.53H-79.25a8.55,8.55,0,0,0-8.53,8.53V209.1l-11.37,7.51Zm0,0" transform="translate(109.52 -146)"/><path class="cls-3" d="M15.93,311.81H-79.25A10.72,10.72,0,0,1-89.9,301.16V225.28l-13.21-8.67L-90,207.94V197.85A10.72,10.72,0,0,1-79.39,187.2H15.79a10.72,10.72,0,0,1,10.65,10.65V301a10.54,10.54,0,0,1-10.51,10.81ZM-95.31,216.61l9.67,6.25V301a6.36,6.36,0,0,0,6.39,6.39H15.93A6.36,6.36,0,0,0,22.33,301V197.87a6.36,6.36,0,0,0-6.39-6.39H-79.25a6.36,6.36,0,0,0-6.39,6.39v12.37Zm0,0" transform="translate(109.52 -146)"/><path class="cls-1" d="M-80.39,206.24a8.55,8.55,0,0,1,8.53-8.53H13.4a8.55,8.55,0,0,1,8.53,8.53v95.34a5.7,5.7,0,0,1-5.68,5.67H-71.86a8.55,8.55,0,0,1-8.53-8.53Zm0,0" transform="translate(109.52 -146)"/><path class="cls-3" d="M-17.87,217.75H-66.18A2.85,2.85,0,0,1-69,214.91a2.85,2.85,0,0,1,2.84-2.84h48.31A2.85,2.85,0,0,1-15,214.91a2.85,2.85,0,0,1-2.84,2.84Zm0-2.84v0Zm0,17H-66.18A2.85,2.85,0,0,1-69,229.12a2.85,2.85,0,0,1,2.84-2.84h48.31A2.85,2.85,0,0,1-15,229.12,2.85,2.85,0,0,1-17.87,232Zm0-2.84v0Zm-8.25,68.19H-66.48A2.71,2.71,0,0,1-69,294.47a2.71,2.71,0,0,1,2.56-2.84h40.2a2.71,2.71,0,0,1,2.56,2.84,2.58,2.58,0,0,1-2.4,2.84Zm-40.06-2.84h0ZM-10.78,146a2.19,2.19,0,0,0-2.14,2.14v14.21a2.19,2.19,0,0,0,2.14,2.14,2.19,2.19,0,0,0,2.14-2.14V148.14A2.19,2.19,0,0,0-10.78,146ZM8,152a2.2,2.2,0,0,0-3,.42L-3.39,163.9a2.2,2.2,0,0,0,.42,3,2.32,2.32,0,0,0,1.28.42,2,2,0,0,0,1.7-.86L8.4,154.93A1.94,1.94,0,0,0,8,152Zm18.9,12.35a2,2,0,0,0-2.84-1l-12.93,6a2,2,0,0,0-1,2.84,2.13,2.13,0,0,0,2,1.28,1.89,1.89,0,0,0,.86-.14l12.93-6a2.57,2.57,0,0,0,1-3ZM-19.29,290.49v6.81h6.81l20-20L.75,270.45ZM12.82,272a1.79,1.79,0,0,0,0-2.56L8.54,265.2a1.78,1.78,0,0,0-2.56,0l-3.26,3.28,6.81,6.81Zm0,0" transform="translate(109.52 -146)"/><text class="cls-4" transform="translate(27.52 212)">暂无数据</text></svg>