<?xml version="1.0" standalone="no"?><!DOCTYPE svg PUBLIC "-//W3C//DTD SVG 1.1//EN" "http://www.w3.org/Graphics/SVG/1.1/DTD/svg11.dtd"><svg t="1504596314471" class="icon" style="" viewBox="0 0 1680 1024" version="1.1" xmlns="http://www.w3.org/2000/svg" p-id="33514" xmlns:xlink="http://www.w3.org/1999/xlink" width="32.8125" height="20"><defs><style type="text/css"></style></defs><path d="M-0.000575 538.332302l10.281013 0 0 0-10.281013 0 0 0ZM157.760839 688.594285l10.281013 0 0 0-10.281013 0 0 0ZM1669.856098 512.050574c0 0.002408-0.046962 0.003612-0.116802 0.006021L1517.099122 174.119761l0-32.868416L1237.02279 141.251345c0-47.904609-31.406581-82.514223-72.940044-82.514223-39.24197 0-72.936432 32.314508-72.936432 82.514223L818.204558 141.251345l-2.545568 0 0 38.283469L665.536689 512.055391c-0.054187-0.001204-0.089107-0.003612-0.087903-0.004817 0 0.065024 0.002408 0.130048 0.002408 0.195072l-0.002408 0.004817 0.002408 0c0.096332 98.435464 70.942363 188.03128 180.751002 188.03128 112.237405 0 180.632996-89.557283 180.754615-187.968664l0.003612 0-0.003612-0.008429c0-0.085494 0.002408-0.169785 0.002408-0.255279 0 0.002408-0.046962 0.003612-0.114394 0.006021L890.08134 208.049031l217.925451 0 0 641.22793L894.364493 849.276961c-81.921782 0-116.184601 40.491876-116.184601 115.985917l778.943897 0c0-64.825293-33.368138-115.985917-116.194235-115.985917l-113.802797 0-112.44211 0L1214.684646 207.985212l230.601514 0-136.791181 304.071383c-0.090311-0.002408-0.151723-0.004817-0.150518-0.006021 0 98.514938 70.870114 188.232372 180.753411 188.232372 112.237405 0 180.632996-89.557283 180.754615-187.968664l0.002408 0-0.002408-0.006021C1669.852486 512.222767 1669.856098 512.136069 1669.856098 512.050574zM948.807624 512.172193c-60.738415 0.031308-144.578405 0.031308-205.295146 0l102.721026-260.893054L948.807624 512.172193zM1386.470769 512.172193l102.59459-260.893054 102.57412 260.893054C1530.927555 512.202297 1447.161018 512.202297 1386.470769 512.172193z" p-id="33515" fill="#5f8bc9"></path></svg>