<?xml version="1.0" standalone="no"?><!DOCTYPE svg PUBLIC "-//W3C//DTD SVG 1.1//EN" "http://www.w3.org/Graphics/SVG/1.1/DTD/svg11.dtd"><svg t="1504596205043" class="icon" style="" viewBox="0 0 1024 1024" version="1.1" xmlns="http://www.w3.org/2000/svg" p-id="31332" xmlns:xlink="http://www.w3.org/1999/xlink" width="20" height="20"><defs><style type="text/css"></style></defs><path d="M469.333333 554.666667H426.666667a42.666667 42.666667 0 0 1 0-85.333334h42.666666v-85.333333c0-1.792 0.085333-3.584 0.341334-5.290667a170.666667 170.666667 0 1 1 84.650666 0c0.256 1.706667 0.341333 3.498667 0.341334 5.290667v85.333333H597.333333a42.666667 42.666667 0 0 1 0 85.333334h-42.666666v253.610666c92.501333-10.496 158.378667-56.149333 204.117333-127.317333 18.773333-29.184 32.682667-60.757333 42.496-92.245333 5.717333-18.773333 8.789333-32.853333 9.386667-34.048h85.333333v-170.666667l-170.666667 170.666667h170.666667a456.106667 456.106667 0 0 1-65.450667 172.373333c-60.672 94.464-151.893333 155.733333-275.882666 167.082667V938.666667a42.666667 42.666667 0 1 1-85.333334 0v-44.544c-123.989333-11.349333-215.210667-72.533333-275.882666-167.082667A428.885333 428.885333 0 0 1 128 554.666667h85.333333c1.024 7.253333 3.669333 15.36 9.386667 34.048 9.813333 31.573333 23.722667 63.061333 42.496 92.16 45.738667 71.253333 111.616 116.906667 204.117333 127.402666V554.666667z m42.666667-256a85.333333 85.333333 0 1 0 0-170.666667 85.333333 85.333333 0 0 0 0 170.666667z m-384 85.333333l170.666667 170.666667h-170.666667v-170.666667z" fill="#5f8bc9" p-id="31333"></path></svg>