<?xml version="1.0" standalone="no"?><!DOCTYPE svg PUBLIC "-//W3C//DTD SVG 1.1//EN" "http://www.w3.org/Graphics/SVG/1.1/DTD/svg11.dtd"><svg t="1503397158194" class="icon" style="" viewBox="0 0 1024 1024" version="1.1" xmlns="http://www.w3.org/2000/svg" p-id="5373" xmlns:xlink="http://www.w3.org/1999/xlink" width="22" height="22"><defs><style type="text/css"></style></defs><path d="M849.489454 713.144136 625.607454 305.462017 625.607454 173.909865l28.402887 0c15.608489 0 28.398794-12.69002 28.398794-28.172643 0-15.479553-12.790304-28.172643-28.398794-28.172643L370.007055 117.564579c-15.642259 0-28.402887 12.694113-28.402887 28.172643 0 15.483646 12.761652 28.172643 28.402887 28.172643l28.398794 0 0 131.552152L174.491103 713.144136c-64.304562 106.346073-14.680351 193.291285 110.309338 193.291285l454.41242 0C864.169805 906.435421 913.835971 819.49021 849.489454 713.144136L849.489454 713.144136zM280.250822 635.213229l174.957731-314.234821L455.208553 173.909865l113.601314 0 0 147.068544 174.040848 314.234821L280.250822 635.213229 280.250822 635.213229zM280.250822 635.213229" p-id="5374" fill="#5f8bc9"></path></svg>