<?xml version="1.0" standalone="no"?><!DOCTYPE svg PUBLIC "-//W3C//DTD SVG 1.1//EN" "http://www.w3.org/Graphics/SVG/1.1/DTD/svg11.dtd"><svg t="1503397395729" class="icon" style="" viewBox="0 0 1024 1024" version="1.1" xmlns="http://www.w3.org/2000/svg" p-id="6152" xmlns:xlink="http://www.w3.org/1999/xlink" width="20" height="20"><defs><style type="text/css"></style></defs><path d="M812.902164 280.018531l-115.572202 0c1.737574-6.068206 2.688225-12.459776 2.688225-19.069311l0-44.887326c0-38.728046-31.928177-70.234621-71.174016-70.234621L395.156852 145.827273c-39.245839 0-71.174016 31.507598-71.174016 70.234621l0 44.887326c0 6.609535 0.950651 13.001105 2.688225 19.069311l-115.572202 0c-64.384379 0-116.764354 51.537793-116.764354 114.88761l0 368.381022c0 63.348794 52.380998 114.88761 116.764354 114.88761l601.804329 0c64.384379 0 116.764354-51.537793 116.764354-114.88761L929.667541 394.906142C929.666518 331.556325 877.286544 280.018531 812.902164 280.018531zM375.148146 260.94922l0-44.887326c0-10.337439 9.162684-19.069311 20.008706-19.069311l233.68732 0c10.846022 0 20.008706 8.732895 20.008706 19.069311l0 44.887326c0 10.337439-9.162684 19.069311-20.008706 19.069311L395.156852 280.018531C384.310829 280.018531 375.148146 271.285636 375.148146 260.94922zM211.097836 331.183841l184.059016 0 233.68732 0 184.057993 0c36.171828 0 65.599044 28.586059 65.599044 63.7223l0 48.370661L145.498792 443.276802l0-48.370661C145.498792 359.7699 174.927031 331.183841 211.097836 331.183841zM596.404342 494.441089c-11.357675 37.383422-46.939055 64.739467-88.963171 64.739467-42.025139 0-77.606519-27.356045-88.964194-64.739467L596.404342 494.441089zM812.902164 827.00844 211.097836 827.00844c-36.171828 0-65.599044-28.586059-65.599044-63.7223L145.498792 494.441089l220.381269 0c12.282744 65.846684 71.084988 115.904777 141.56111 115.904777 70.476121 0 129.278365-50.058093 141.56111-115.904777l229.498928 0 0 268.845051C878.501208 798.422382 849.072969 827.00844 812.902164 827.00844z" p-id="6153" fill="#779cd1"></path></svg>