<?xml version="1.0" standalone="no"?><!DOCTYPE svg PUBLIC "-//W3C//DTD SVG 1.1//EN" "http://www.w3.org/Graphics/SVG/1.1/DTD/svg11.dtd"><svg t="1504942068435" class="icon" style="" viewBox="0 0 1024 1024" version="1.1" xmlns="http://www.w3.org/2000/svg" p-id="3877" xmlns:xlink="http://www.w3.org/1999/xlink" width="22" height="22"><defs><style type="text/css"></style></defs><path d="M923.842883 788.153504 724.617445 788.153504l0 0L397.320121 788.153504l0 0-42.691311 0 0 0-10.774391 0L228.28324 898.618385c-7.726985 7.390317-18.399045 11.95938-30.188556 11.95938l0 0 0 0c-0.180102 0-0.347924-0.042979-0.528026-0.042979-11.57564-0.141216-22.049179-4.644787-29.66053-11.915377-0.170892-0.151449-0.296759-0.369414-0.467651-0.532119-1.727341-1.725294-3.349281-3.527336-4.743024-5.502317-0.551562-0.781806-0.921999-1.682315-1.417279-2.5071-0.880043-1.443885-1.824555-2.854001-2.520403-4.41659-0.324388-0.74906-0.467651-1.562589-0.750083-2.322905-0.648776-1.746784-1.338485-3.483334-1.732457-5.349845-0.569982-2.648316-0.870834-5.40408-0.870834-8.215102l0 0L155.404396 788.153504l-7.115048 0 0 0-49.824779 0c-23.568788-0.011256-42.672892-18.275225-42.672892-40.815591L55.791677 162.41302c0-22.540366 19.11229-40.804335 42.691311-40.804335l825.360917 0c23.577998 0 42.691311 18.263969 42.691311 40.804335l0 584.924893C966.534194 769.878279 947.420881 788.153504 923.842883 788.153504zM297.707402 380.065132c-47.15702 0-85.381599 36.539194-85.381599 81.619926 0 45.069475 38.225603 81.619926 85.381599 81.619926 47.15702 0 85.382623-36.550451 85.382623-81.619926C383.089002 416.60535 344.864422 380.065132 297.707402 380.065132zM511.162936 380.065132c-47.15702 0-85.381599 36.539194-85.381599 81.619926 0 45.069475 38.225603 81.619926 85.381599 81.619926 47.15702 0 85.382623-36.550451 85.382623-81.619926C596.544535 416.60535 558.318932 380.065132 511.162936 380.065132zM724.617445 380.065132c-47.15702 0-85.382623 36.539194-85.382623 81.619926 0 45.069475 38.225603 81.619926 85.382623 81.619926 47.15702 0 85.382623-36.550451 85.382623-81.619926C810.000068 416.60535 771.774465 380.065132 724.617445 380.065132z" p-id="3878" fill="#5f8bc9"></path></svg>