<?xml version="1.0" standalone="no"?><!DOCTYPE svg PUBLIC "-//W3C//DTD SVG 1.1//EN" "http://www.w3.org/Graphics/SVG/1.1/DTD/svg11.dtd"><svg t="1503397111147" class="icon" style="" viewBox="0 0 1024 1024" version="1.1" xmlns="http://www.w3.org/2000/svg" p-id="3287" xmlns:xlink="http://www.w3.org/1999/xlink" width="22" height="22"><defs><style type="text/css"></style></defs><path d="M958.748444 349.889422c-7.839289-5.233778-18.432-3.106133-23.665778 4.733156-8.920178 13.380267-21.185422 19.160178-31.721244 21.515378-0.091022-19.876978-9.716622-40.618667-27.3408-58.242844-16.827733-16.827733-41.2672-20.206933-58.106311-8.078222-12.5952 9.090844-22.516622 29.252267-9.045333 56.2176 8.385422 16.782222 23.881956 30.219378 42.746311 38.0928-3.572622 2.525867-7.702756 4.960711-12.356267 7.281778-10.228622 5.12-20.696178 8.180622-30.833778 9.955556C759.512178 321.513244 632.183467 250.311111 482.793244 250.311111c-29.843911 0-57.321244 1.9456-82.989511 5.267911-42.746311-27.682133-122.072178-61.758578-201.454933-56.467911 3.663644 32.995556 23.904711 75.377778 49.993956 105.961244-50.551467 31.232-83.137422 73.864533-99.544178 123.221333-19.239822 8.442311-40.015644 13.801244-63.237689 15.371378-16.975644 1.160533-29.7984 15.724089-28.592356 32.699733C60.097422 520.123733 73.068089 594.659556 124.393244 614.4c9.614222 3.697778 24.951467 5.882311 43.2128 7.042844 21.754311 35.544178 53.680356 66.821689 93.092978 91.613867-6.599111 32.961422-14.756978 66.207289-24.803556 99.794489C231.549156 827.357867 242.540089 841.955556 257.706667 841.955556l95.596089 0c9.454933 0 18.079289-5.791289 21.367467-14.654578 7.520711-20.320711 13.880889-41.119289 19.285333-62.304711C422.308978 770.651022 452.073244 773.688889 482.793244 773.688889c35.714844 0 70.155378-4.084622 102.582044-11.628089-4.221156 16.861867-8.738133 33.769244-13.824 50.779022C567.1936 827.357867 578.184533 841.955556 593.351111 841.955556l95.596089 0c9.454933 0 18.079289-5.791289 21.367467-14.654578 17.032533-46.000356 28.307911-94.344533 35.214222-144.452267 52.474311-45.852444 84.286578-105.528889 84.286578-170.848711 0-20.047644-3.094756-39.549156-8.749511-58.299733 10.990933-2.446222 22.277689-6.166756 33.450667-11.764622 18.488889-9.238756 30.128356-19.888356 37.387378-30.196622 29.457067-0.603022 55.796622-14.506667 71.5776-38.172444C968.715378 365.715911 966.587733 355.1232 958.748444 349.889422zM277.993244 432.355556c-15.712711 0-28.444444-12.731733-28.444444-28.444444 0-15.712711 12.731733-28.444444 28.444444-28.444444s28.444444 12.731733 28.444444 28.444444C306.437689 419.623822 293.694578 432.355556 277.993244 432.355556zM576.113778 464.713956c-11.889778 3.9936-24.803556-2.434844-28.797156-14.358756-2.924089-8.738133-13.9264-18.944-35.316622-18.944-16.611556 0-26.4192 10.774756-27.511467 21.412978-1.376711 13.255111 10.660978 23.870578 32.187733 28.3648 51.484444 10.786133 71.315911 46.751289 68.118756 77.607822-2.901333 28.023467-23.062756 50.540089-50.028089 58.788978L534.766933 631.466667c0 12.561067-10.194489 22.755556-22.755556 22.755556s-22.755556-10.194489-22.755556-22.755556l0-13.198222c-31.220622-7.213511-49.413689-28.398933-55.716978-47.240533-3.982222-11.923911 2.446222-24.826311 14.370133-28.797156 11.912533-3.9936 24.814933 2.434844 28.797156 14.358756 3.151644 9.432178 15.291733 18.944 35.305244 18.944 16.600178 0 26.407822-10.774756 27.511467-21.412978 1.376711-13.255111-10.660978-23.870578-32.187733-28.3648-51.495822-10.786133-71.315911-46.751289-68.118756-77.607822 2.901333-28.023467 23.062756-50.540089 50.028089-58.788978L489.244444 375.466667c0-12.561067 10.194489-22.755556 22.755556-22.755556s22.755556 10.194489 22.755556 22.755556l0 13.198222c31.209244 7.213511 49.402311 28.398933 55.7056 47.240533C594.454756 447.829333 588.026311 460.720356 576.113778 464.713956zM839.384178 350.765511c-3.470222-6.929067-3.401956-11.923911-1.536-13.266489 0.739556-0.534756 1.865956-0.853333 3.242667-0.853333 2.855822 0 6.826667 1.422222 10.774756 5.381689 10.3424 10.353778 16.4864 21.981867 17.260089 32.244622C855.7568 369.823289 844.663467 361.312711 839.384178 350.765511z" p-id="3288" fill="#5f8bc9"></path></svg>