<?xml version="1.0" standalone="no"?><!DOCTYPE svg PUBLIC "-//W3C//DTD SVG 1.1//EN" "http://www.w3.org/Graphics/SVG/1.1/DTD/svg11.dtd"><svg t="1503397494507" class="icon" style="" viewBox="0 0 1024 1024" version="1.1" xmlns="http://www.w3.org/2000/svg" p-id="7175" xmlns:xlink="http://www.w3.org/1999/xlink" width="20" height="20"><defs><style type="text/css"></style></defs><path d="M961.886 227.347c0 15.954-13.054 29.007-29.008 29.007L91.672 256.354c-15.955 0-29.008-13.053-29.008-29.007l0-69.617c0-15.954 13.053-29.007 29.008-29.007l841.206 0c15.954 0 29.008 13.053 29.008 29.007L961.886 227.347zM961.886 546.603c0 15.954-13.054 29.007-29.008 29.007L91.672 575.61c-15.955 0-29.008-13.053-29.008-29.007l0-69.617c0-15.954 13.053-29.008 29.008-29.008l841.206 0c15.954 0 29.008 13.054 29.008 29.008L961.886 546.603zM961.886 865.857c0 15.954-13.054 29.008-29.008 29.008L91.672 894.865c-15.955 0-29.008-13.054-29.008-29.008L62.664 796.24c0-15.954 13.053-29.007 29.008-29.007l841.206 0c15.954 0 29.008 13.053 29.008 29.007L961.886 865.857z" p-id="7176" fill="#779cd1"></path></svg>