<?xml version="1.0" standalone="no"?><!DOCTYPE svg PUBLIC "-//W3C//DTD SVG 1.1//EN" "http://www.w3.org/Graphics/SVG/1.1/DTD/svg11.dtd"><svg t="1503382262543" class="icon" style="" viewBox="0 0 1024 1024" version="1.1" xmlns="http://www.w3.org/2000/svg" p-id="3963" xmlns:xlink="http://www.w3.org/1999/xlink" width="14" height="14"><defs><style type="text/css"></style></defs><path d="M363.6736 633.49248c-0.53248 0.70144-1.08544 1.41824-1.32608 2.29376l-41.8304 153.3696c-2.432 8.91904 0.06144 18.55488 6.67136 25.33376 4.95104 4.80768 11.46368 7.47008 18.38592 7.47008 2.29888 0 4.59264-0.27136 6.85056-0.88576l152.28928-41.54368c0.23552 0 0.3584 0.25088 0.53248 0.25088 1.76128 0 3.46624-0.66048 4.77184-1.99168l407.20384-407.1424c12.09856-12.11904 18.72896-28.60544 18.72896-46.56128 0.00512-20.30592-8.62208-40.63744-23.71072-55.70048l-38.47168-38.52288c-15.0784-15.104-35.45088-23.7568-55.74144-23.7568-17.96096 0-34.45248 6.62528-46.59712 18.70848l-407.14752 407.296C363.8528 632.46848 363.99104 633.0624 363.6736 633.49248zM811.24352 264.73984c6.29248-6.32832 18.5344-5.4016 25.74848 1.8432l38.46656 38.52288c4.0192 4.0192 6.31808 9.36448 6.31808 14.60736 0 4.36224-1.57184 8.27904-4.3776 11.08992l-40.45824 40.4224-65.5872-66.61632L811.24352 264.73984zM729.91744 346.08128l65.5872 66.65216-293.25824 293.26848-66.15552-66.07872L729.91744 346.08128zM403.77856 681.07264l56.63744 56.64256-77.85472 21.31968L403.77856 681.07264z" p-id="3964" fill="#ffffff"></path><path d="M903.18848 408.54016c-19.58912 0-35.59936 15.99488-35.67616 35.6864L867.51232 823.808c0 15.72864-12.80512 28.52864-28.544 28.52864L196.83328 852.33664c-15.77984 0-28.60544-12.8-28.60544-28.52864L168.22784 204.25728c0-15.74912 12.83584-28.5696 28.60544-28.5696l413.57824 0c19.63008 0 35.60448-15.98464 35.60448-35.62496 0-19.6352-15.9744-35.61472-35.60448-35.61472L192.55808 104.448c-52.69504 0-95.56992 42.86464-95.56992 95.55456L96.98816 828.1088c0 52.67456 42.87488 95.5392 95.56992 95.5392l650.66496 0c52.70528 0 95.58016-42.84928 95.58016-95.5392L938.8032 444.02688C938.70592 424.45824 922.73152 408.54016 903.18848 408.54016z" p-id="3965" fill="#ffffff"></path></svg>