<?xml version="1.0" standalone="no"?><!DOCTYPE svg PUBLIC "-//W3C//DTD SVG 1.1//EN" "http://www.w3.org/Graphics/SVG/1.1/DTD/svg11.dtd"><svg t="1504597059777" class="icon" style="" viewBox="0 0 1024 1024" version="1.1" xmlns="http://www.w3.org/2000/svg" p-id="51755" xmlns:xlink="http://www.w3.org/1999/xlink" width="20" height="20"><defs><style type="text/css"></style></defs><path d="M149.32992 517.96992h341.34016v106.6496h42.65984V517.96992h341.34016V645.9392h42.67008V475.29984h-384v-85.32992h-42.67008v85.32992h-384v170.6496h42.67008V517.96992z m85.34016 170.6496H21.32992A21.32992 21.32992 0 0 0 0 709.9392v170.67008c0 11.776 9.54368 21.32992 21.32992 21.32992h213.34016c11.776 0 21.32992-9.55392 21.32992-21.32992V709.94944c0-11.776-9.56416-21.32992-21.32992-21.32992z m384 0H405.32992A21.32992 21.32992 0 0 0 384 709.9392v170.67008c0 11.776 9.54368 21.32992 21.32992 21.32992h213.34016c11.776 0 21.32992-9.55392 21.32992-21.32992V709.94944c0-11.776-9.56416-21.32992-21.32992-21.32992z m384 0H789.32992A21.32992 21.32992 0 0 0 768 709.9392v170.67008c0 11.776 9.54368 21.32992 21.32992 21.32992h213.34016c11.776 0 21.32992-9.55392 21.32992-21.32992V709.94944c0-11.776-9.56416-21.32992-21.32992-21.32992zM341.32992 325.98016h341.34016c11.776 0 21.32992-9.55392 21.32992-21.34016V133.98016A21.34016 21.34016 0 0 0 682.67008 112.64H341.32992a21.32992 21.32992 0 0 0-21.32992 21.34016V304.64c0 11.776 9.54368 21.34016 21.32992 21.34016z" p-id="51756" fill="#5f8bc9"></path></svg>