<?xml version="1.0" standalone="no"?><!DOCTYPE svg PUBLIC "-//W3C//DTD SVG 1.1//EN" "http://www.w3.org/Graphics/SVG/1.1/DTD/svg11.dtd"><svg t="1504942137335" class="icon" style="" viewBox="0 0 1024 1024" version="1.1" xmlns="http://www.w3.org/2000/svg" p-id="4652" xmlns:xlink="http://www.w3.org/1999/xlink" width="22" height="22"><defs><style type="text/css"></style></defs><path d="M600.915137 63.908542 421.913129 63.908542c-16.481022 0-29.844925 13.329587-29.844925 29.809933l0 179.011047c0 16.479323 13.36288 29.859052 29.844925 29.859052l179.002008 0c16.514792 0 29.844925-13.379729 29.844925-29.859052L630.760062 93.718475C630.760062 77.238129 617.428906 63.908542 600.915137 63.908542zM929.138699 63.908542 750.104967 63.908542c-16.481022 0-29.813201 13.329587-29.813201 29.809933l0 179.011047c0 16.479323 13.331156 29.859052 29.813201 29.859052l179.033732 0c16.481022 0 29.811154-13.379729 29.811154-29.859052L958.949853 93.718475C958.949853 77.238129 945.61972 63.908542 929.138699 63.908542zM272.690552 63.908542 93.688544 63.908542c-16.481022 0-29.811154 13.329587-29.811154 29.809933l0 179.011047c0 16.479323 13.330133 29.859052 29.811154 29.859052l179.002008 0c16.513769 0 29.843901-13.379729 29.843901-29.859052L302.534454 93.718475C302.53343 77.238129 289.203297 63.908542 272.690552 63.908542zM600.915137 392.104329 421.913129 392.104329c-16.481022 0-29.844925 13.345959-29.844925 29.80891l0 179.01207c0 16.479323 13.36288 29.860075 29.844925 29.860075l179.002008 0c16.514792 0 29.844925-13.379729 29.844925-29.860075L630.760062 421.913239C630.760062 405.450289 617.428906 392.104329 600.915137 392.104329zM929.138699 392.104329 750.104967 392.104329c-16.481022 0-29.813201 13.345959-29.813201 29.80891l0 179.01207c0 16.479323 13.331156 29.860075 29.813201 29.860075l179.033732 0c16.481022 0 29.811154-13.379729 29.811154-29.860075L958.949853 421.913239C958.949853 405.450289 945.61972 392.104329 929.138699 392.104329zM272.690552 392.104329 93.688544 392.104329c-16.481022 0-29.811154 13.345959-29.811154 29.80891l0 179.01207c0 16.479323 13.330133 29.860075 29.811154 29.860075l179.002008 0c16.513769 0 29.843901-13.379729 29.843901-29.860075L302.534454 421.913239C302.53343 405.450289 289.203297 392.104329 272.690552 392.104329zM600.915137 720.297047 421.913129 720.297047c-16.481022 0-29.844925 13.33061-29.844925 29.827329l0 178.992627c0 16.514115 13.36288 29.861098 29.844925 29.861098l179.002008 0c16.514792 0 29.844925-13.346983 29.844925-29.861098L630.760062 750.124376C630.760062 733.627656 617.428906 720.297047 600.915137 720.297047zM929.138699 720.297047 750.104967 720.297047c-16.481022 0-29.813201 13.33061-29.813201 29.827329l0 178.992627c0 16.514115 13.331156 29.861098 29.813201 29.861098l179.033732 0c16.481022 0 29.811154-13.346983 29.811154-29.861098L958.949853 750.124376C958.949853 733.627656 945.61972 720.297047 929.138699 720.297047zM272.690552 720.297047 93.688544 720.297047c-16.481022 0-29.811154 13.33061-29.811154 29.827329l0 178.992627c0 16.514115 13.330133 29.861098 29.811154 29.861098l179.002008 0c16.513769 0 29.843901-13.346983 29.843901-29.861098L302.534454 750.124376C302.53343 733.627656 289.203297 720.297047 272.690552 720.297047z" p-id="4653" fill="#5f8bc9"></path></svg>