<?xml version="1.0" standalone="no"?><!DOCTYPE svg PUBLIC "-//W3C//DTD SVG 1.1//EN" "http://www.w3.org/Graphics/SVG/1.1/DTD/svg11.dtd"><svg t="1502969750161" class="icon" style="" viewBox="0 0 1024 1024" version="1.1" xmlns="http://www.w3.org/2000/svg" p-id="5238" xmlns:xlink="http://www.w3.org/1999/xlink" width="14" height="14"><defs><style type="text/css"></style></defs><path d="M727.273437 930.216034l0.034792 1.1328c0.422625 14.777565 11.144828 26.354228 24.414039 26.354228 13.279445 0 24.007787-11.576663 24.423249-26.349111l0.25992-9.18929 0.381693 0c0.356111-6.690376 0.521886-12.635785 0.521886-18.281365 0.01535-158.674882-88.195691-299.16766-224.711901-357.916692l-15.310707-6.592139 13.510712-9.760295c65.375963-47.239907 104.405885-126.084627 104.405885-210.906477 0-139.79079-105.147782-253.517971-234.391355-253.517971-129.24255 0-234.387261 113.727181-234.387261 253.517971 0 84.816734 39.028898 163.661454 104.397698 210.906477l13.510712 9.760295-15.308661 6.592139c-136.507 58.748009-224.718041 199.236694-224.718041 357.906459 0 5.617951 0.180102 11.476379 0.561795 18.296715l0.596588 0 0.058328 9.457396c0 14.987343 11.005658 27.183106 24.536836 27.183106 13.518898 0 24.518417-12.196787 24.518417-27.183106 0-0.161682-0.061398-0.63445-0.105401-0.984421-0.065492-0.50142-0.12689-1.001817-0.170892-1.509377-0.75213-9.30083-1.24741-17.10968-1.24741-25.26543 0-88.321558 31.92306-171.393555 89.889263-233.908354 58.151421-62.712297 135.524626-97.248881 217.862913-97.248881 82.344426 0 159.721725 34.536584 217.873146 97.248881 57.972343 62.514799 89.896426 145.582703 89.896426 233.908354 0 9.304923-0.642636 18.321274-1.279133 25.936719C727.292879 929.952021 727.28367 930.086074 727.273437 930.216034L727.273437 930.216034zM236.205165 318.711785c0-109.37199 82.818217-198.354604 184.612625-198.354604 101.791337 0 184.606485 88.982614 184.606485 198.354604 0 109.370966-82.816171 198.35358-184.606485 198.35358C319.023382 517.065366 236.205165 428.083775 236.205165 318.711785L236.205165 318.711785zM691.529351 562.257637c61.365626 7.319709 116.932176 39.032992 156.719344 89.478917 39.628556 50.250474 61.4567 116.224048 61.4567 185.766914 0 15.269775 11.214413 27.691689 24.994254 27.691689 13.396101 0 24.314779-11.68104 24.856108-26.583448l0.069585-0.848321c0.020466-0.149403 0.039909-0.294712 0.064468-0.431835-0.064468-132.00036-73.473385-248.774947-187.038884-297.532417l-15.349593-6.588045 13.549597-9.770528c54.351885-39.173185 86.801948-104.644315 86.801948-175.136809 0-97.615225-60.869323-181.299159-148.256602-204.234521l-0.521886 0.221034-2.391467-0.246617c-0.51677-0.050142-1.032516-0.124843-1.549286-0.205685-0.204661-0.028653-0.416486-0.069585-0.627287-0.090051-13.975293 0.050142-25.329898 12.663414-25.329898 28.158317 0 13.917988 9.067516 25.561166 21.554922 27.688619l1.157359 0.195451 1.069355 0.470721c1.242294 0.545422 3.056616 1.153266 5.393847 1.804089 0.496304 0.1361 0.852414 0.25685 1.047866 0.325411l0 0c57.399291 21.010523 95.964632 78.863139 95.964632 143.956669 0 72.730465-47.904033 135.159306-114.172319 149.194974l-1.038656 0.606821-2.215458 0.149403c-15.686261 1.073448-27.973098 15.400758-27.973098 32.619932 0 17.656125 12.58769 32.023344 28.655643 32.720216l2.085498 0.090051L691.529351 562.257637 691.529351 562.257637zM691.529351 562.257637" p-id="5239" fill="#999999"></path></svg>