<?xml version="1.0" standalone="no"?><!DOCTYPE svg PUBLIC "-//W3C//DTD SVG 1.1//EN" "http://www.w3.org/Graphics/SVG/1.1/DTD/svg11.dtd"><svg t="1502854652139" class="icon" style="" viewBox="0 0 1024 1024" version="1.1" xmlns="http://www.w3.org/2000/svg" p-id="2363" xmlns:xlink="http://www.w3.org/1999/xlink" width="16" height="16"><defs><style type="text/css"></style></defs><path d="M752.881958 1024c-66.06485 0-151.355467-44.010242-211.273685-80.940261-80.243023-49.444864-166.687334-117.852554-243.416096-192.607776l-0.276237-0.276237-24.361995-24.367904C198.792815 649.084969 130.392511 562.634749 80.940261 482.393204 44.016151 422.473509 0 337.182892 0 271.118042c0-70.697351 50.554242-145.734718 72.291251-174.712966C89.249516 73.79061 148.50447 0 198.850426 0c20.674902 0 42.937795 13.531159 72.198187 43.877294 25.880557 26.831875 50.715257 60.184113 66.9881 83.439685 21.85814 31.222115 42.070678 63.911091 56.923931 92.053243 24.050306 45.56278 26.831875 65.100238 26.831875 75.833578 0 21.661672-11.315358 40.450188-33.624044 55.839666-14.690762 10.13212-32.324107 17.760385-49.375435 25.14048-11.501485 4.973735-29.867522 12.913689-36.872408 18.500462 2.446244 10.350746 13.126406 35.347937 41.99534 77.731781 26.901303 39.491485 61.684949 82.290423 93.110918 114.562828 32.266496 31.42006 75.059525 66.209615 114.562828 93.110918 42.372027 28.857117 67.369218 39.543187 77.72735 41.989432 5.579387-7.004886 13.52525-25.365014 18.498985-36.866499 7.374186-17.05576 15.002451-34.690583 25.14048-49.381344 15.389478-22.308686 34.177994-33.618135 55.839666-33.618135 10.733341 0 30.270798 2.781569 75.839487 26.825966 28.136243 14.853254 60.831127 35.065792 92.048811 56.923931 23.254094 16.278752 56.606333 41.113452 83.444117 66.9881 30.340226 29.260393 43.871385 51.523285 43.871385 72.198187 0 50.345956-73.784701 109.600911-96.399167 126.560653C898.616677 973.445758 823.579309 1024 752.881958 1024L752.881958 1024zM340.528751 707.279293" p-id="2364" fill="#ffffff"></path></svg>