<?xml version="1.0" standalone="no"?><!DOCTYPE svg PUBLIC "-//W3C//DTD SVG 1.1//EN" "http://www.w3.org/Graphics/SVG/1.1/DTD/svg11.dtd"><svg t="1502940191584" class="icon" style="" viewBox="0 0 1024 1024" version="1.1" xmlns="http://www.w3.org/2000/svg" p-id="1178" xmlns:xlink="http://www.w3.org/1999/xlink" width="20" height="20"><defs><style type="text/css"></style></defs><path d="M283.306667 102.4c17.066667 13.653333 37.546667 30.72 51.2 51.2 13.653333 20.48 40.96 51.2 40.96 51.2h221.866666s23.893333-23.893333 37.546667-44.373333c13.653333-20.48 27.306667-37.546667 54.613333-54.613334 23.893333-13.653333 34.133333-51.2 3.413334-61.44-23.893333-10.24-34.133333 10.24-64.853334 10.24-27.306667 0-30.72-23.893333-61.44-34.133333-27.306667-10.24-44.373333 0-61.44 13.653333-17.066667 17.066667-23.893333 17.066667-23.893333 17.066667s-20.48-10.24-30.72-23.893333c-10.24-13.653333-40.96-17.066667-58.026667-3.413334-23.893333 13.653333-27.306667 27.306667-47.786666 30.72-23.893333 3.413333-58.026667-23.893333-78.506667-6.826666-10.24 17.066667 0 44.373333 17.066667 54.613333z m457.386666 296.96c-81.92-71.68-126.293333-136.533333-126.293333-136.533333h-242.346667s-47.786667 68.266667-119.466666 133.12c-85.333333 75.093333-153.6 194.56-129.706667 337.92 23.893333 126.293333 143.36 273.066667 372.053333 273.066666 221.866667 0 351.573333-119.466667 375.466667-266.24 27.306667-177.493333-61.44-279.893333-129.706667-341.333333z m-129.706666 378.88h-88.746667v30.72c0 13.653333-13.653333 27.306667-30.72 27.306667s-30.72-6.826667-30.72-27.306667v-30.72h-88.746667c-13.653333 0-23.893333-17.066667-23.893333-27.306667 0-13.653333 10.24-23.893333 23.893333-23.893333h88.746667v-61.44h-85.333333c-13.653333 0-23.893333-10.24-23.893334-20.48 0-13.653333 10.24-34.133333 23.893334-34.133333h85.333333v-20.48s-68.266667-75.093333-78.506667-81.92c-6.826667-6.826667-17.066667-27.306667-6.826666-40.96 13.653333-13.653333 34.133333-3.413333 44.373333 6.826666l68.266667 68.266667s64.853333-61.44 78.506666-71.68c13.653333-10.24 30.72-10.24 40.96 0 10.24 13.653333 6.826667 23.893333-10.24 37.546667-17.066667 13.653333-78.506667 78.506667-78.506666 78.506666v20.48h81.92c17.066667 0 30.72 20.48 30.72 34.133334s-6.826667 23.893333-27.306667 23.893333h-81.92v61.44h81.92c20.48 0 30.72 10.24 30.72 23.893333 0 10.24-10.24 27.306667-23.893333 27.306667z" fill="#1362ba" p-id="1179"></path></svg>