<?xml version="1.0" standalone="no"?><!DOCTYPE svg PUBLIC "-//W3C//DTD SVG 1.1//EN" "http://www.w3.org/Graphics/SVG/1.1/DTD/svg11.dtd"><svg t="1502969480356" class="icon" style="" viewBox="0 0 1024 1024" version="1.1" xmlns="http://www.w3.org/2000/svg" p-id="2891" xmlns:xlink="http://www.w3.org/1999/xlink" width="14" height="14"><defs><style type="text/css"></style></defs><path d="M512 54.857143c252.342857 0 457.142857 204.8 457.142857 457.142857S764.342857 969.142857 512 969.142857 54.857143 764.342857 54.857143 512 259.657143 54.857143 512 54.857143M512 0C230.4 0 0 230.4 0 512s230.4 512 512 512 512-230.4 512-512S793.6 0 512 0z" fill="#999999" p-id="2892"></path><path d="M815.542857 603.428571h-329.142857c-14.628571 0-10.971429-36.571429-10.971429-54.857142s-7.314286 0 10.971429 0h329.142857c14.628571 0 29.257143 10.971429 29.257143 29.257142s-14.628571 25.6-29.257143 25.6z" fill="#999999" p-id="2893"></path><path d="M486.4 603.428571c-14.628571 0-29.257143-10.971429-29.257143-29.257142V237.714286c0-14.628571 10.971429-29.257143 29.257143-29.257143s29.257143 10.971429 29.257143 29.257143v336.457143c0 14.628571-10.971429 29.257143-29.257143 29.257142z" fill="#999999" p-id="2894"></path></svg>