<?xml version="1.0" standalone="no"?><!DOCTYPE svg PUBLIC "-//W3C//DTD SVG 1.1//EN" "http://www.w3.org/Graphics/SVG/1.1/DTD/svg11.dtd"><svg t="1502940247802" class="icon" style="" viewBox="0 0 1024 1024" version="1.1" xmlns="http://www.w3.org/2000/svg" p-id="1398" xmlns:xlink="http://www.w3.org/1999/xlink" width="20" height="20"><defs><style type="text/css"></style></defs><path d="M28.416 569.216l56 28.8c0 0 25.472 14.592 38.912-12.672l138.624-289.92c0 0 13.12-24.768-8.32-36.416L192.512 229.184c0 0-18.944-10.56-31.296 11.712C160.832 249.856 18.944 536.32 18.944 536.32S9.92 559.808 28.416 569.216z" p-id="1399" fill="#1362ba"></path><path d="M942.528 598.656l57.152-26.304c0 0 27.328-11.072 14.144-38.528l-142.592-287.936c0 0-11.392-25.536-33.792-15.936l-61.12 29.632c0 0-20.032 8.384-10.176 31.808 6.848 5.888 144.704 294.4 144.704 294.4S923.712 607.36 942.528 598.656z" p-id="1400" fill="#1362ba"></path><path d="M164.032 597.696l18.88-40 66.24 83.648c0 0 43.072-9.856 58.176 17.088 0 0 14.208 16.384 8 47.296 0 0 8.896 6.464 9.6 10.496 0 0 29.632-7.168 47.488 13.888 0 0 16.384 13.056 14.528 38.528 0 0 11.776 5.056 14.208 12.032 0 0 29.12-7.232 43.264 9.792 0 0 17.28 16.128 16 35.008l27.072 19.776c0 0 25.216 2.112 29.248 21.824l24.256 17.92c0 0 38.784 15.36 40.96-23.424L490.88 792.192c0 0-10.688-27.968 22.72-23.616l135.744 95.616c0 0 22.208 9.472 35.648-11.584 0 0 13.056-18.176-5.504-37.888l-144.384-104.32c0 0-12.736-29.184 20.032-26.944l171.328 121.216c0 0 24.32 9.664 34.56-8.448 0 0 13.888-18.112 0-36.8L571.904 621.44c0 0-11.392-33.088 24-24.512l195.008 138.88c0 0 29.504 9.28 42.624-14.784 0 0 16.704-25.856-5.696-47.168l-275.84-240.64c0 0-51.264-24.512-81.856 26.752 0 0-5.376 83.52-98.176 98.752 0 0-63.296-4.864-48.576-46.4 0 0 18.56-24.576 16.96-76.352 0 0 2.112-37.12 27.84-68.8L268.864 367.168 290.688 321.92l150.016 0c0 0 61.632-34.944 108.096-31.68 0 0 60.608 3.264 76.864 12.544 0 0 80.256 25.664 116.224 19.648l134.272 278.272-21.312 48.64c0 0 39.296 40.384 10.304 89.344-8.064 16.448-28.8 32.32-62.656 33.856 0 0 5.184 33.024-18.56 51.648 0 0-17.472 23.936-59.776 17.344 0 0 2.432 29.184-25.6 48.576 0 0-33.344 28.672-84.864-6.272 0 0-8.192 32.832-49.344 39.552 0 0-30.016 4.672-47.488-12.224 0 0-31.424 59.2-76.16 25.856 0 0-28.352-23.488-8.448-56.704 0 0-38.144 60.288-83.456 14.976 0 0-25.152-18.88-1.92-58.432 0 0-35.968 40.96-75.584 3.84 0 0-27.008-22.08-5.44-63.168 0 0-36.8 43.584-79.68 2.048 0 0-17.984-16.576-7.616-53.44l41.472-56.704L164.032 597.696z" p-id="1401" fill="#1362ba"></path></svg>